<svg enable-background="new 0 0 243 138" viewBox="0 0 243 138" xmlns="http://www.w3.org/2000/svg" xmlns:xlink="http://www.w3.org/1999/xlink"><mask id="a" height="137.4" maskUnits="userSpaceOnUse" width="166.2" x=".1" y=".2"><path d="m166.4 137.6h-166.3v-137.4h166.3z" fill="#fff"/></mask><mask id="b" height="56.3" maskUnits="userSpaceOnUse" width="238.7" x="3" y="62.8"><path d="m0 137.8h242.7v-137.4h-242.7z" fill="#fff"/></mask><mask id="c" height="58.1" maskUnits="userSpaceOnUse" width="242.7" x="0" y="61.9"><path d="m0 137.8h242.7v-137.4h-242.7z" fill="#fff"/></mask><mask id="d" height="34.1" maskUnits="userSpaceOnUse" width="233.4" x="6.7" y="80.5"><path d="m0 137.8h242.7v-137.4h-242.7z" fill="#fff"/></mask><mask id="e" height="23.7" maskUnits="userSpaceOnUse" width="6.2" x="112.8" y="82.4"><path d="m0 137.8h242.7v-137.4h-242.7z" fill="#fff"/></mask><mask id="f" height="25.2" maskUnits="userSpaceOnUse" width="7.7" x="112.1" y="81.6"><path d="m0 137.8h242.7v-137.4h-242.7z" fill="#fff"/></mask><mask id="g" height="16.1" maskUnits="userSpaceOnUse" width="10" x="208.7" y="84.9"><path d="m0 137.8h242.7v-137.4h-242.7z" fill="#fff"/></mask><mask id="h" height="18" maskUnits="userSpaceOnUse" width="11.6" x="207.9" y="84"><path d="m0 137.8h242.7v-137.4h-242.7z" fill="#fff"/></mask><mask id="i" height="14.1" maskUnits="userSpaceOnUse" width="20.2" x="187.2" y="87.6"><path d="m0 137.8h242.7v-137.4h-242.7z" fill="#fff"/></mask><mask id="j" height="15.6" maskUnits="userSpaceOnUse" width="21.7" x="186.5" y="86.9"><path d="m0 137.8h242.7v-137.4h-242.7z" fill="#fff"/></mask><mask id="k" height="14.8" maskUnits="userSpaceOnUse" width="23.8" x="160.1" y="86.9"><path d="m0 137.8h242.7v-137.4h-242.7z" fill="#fff"/></mask><mask id="l" height="16.3" maskUnits="userSpaceOnUse" width="25.2" x="159.4" y="86.1"><path d="m0 137.8h242.7v-137.4h-242.7z" fill="#fff"/></mask><mask id="m" height="15.2" maskUnits="userSpaceOnUse" width="19.1" x="123.4" y="86.5"><path d="m0 137.8h242.7v-137.4h-242.7z" fill="#fff"/></mask><mask id="n" height="16.7" maskUnits="userSpaceOnUse" width="20.5" x="122.7" y="85.7"><path d="m0 137.8h242.7v-137.4h-242.7z" fill="#fff"/></mask><mask id="o" height="11.6" maskUnits="userSpaceOnUse" width="95" x="145.9" y="95.9"><path d="m0 137.8h242.7v-137.4h-242.7z" fill="#fff"/></mask><mask id="p" height="14" maskUnits="userSpaceOnUse" width="17.6" x="83.2" y="85.2"><path d="m0 137.8h242.7v-137.4h-242.7z" fill="#fff"/></mask><mask id="q" height="15.5" maskUnits="userSpaceOnUse" width="19.1" x="82.5" y="84.4"><path d="m0 137.8h242.7v-137.4h-242.7z" fill="#fff"/></mask><mask id="r" height="13.8" maskUnits="userSpaceOnUse" width="15.4" x="64.1" y="84.3"><path d="m0 137.8h242.7v-137.4h-242.7z" fill="#fff"/></mask><mask id="s" height="15.3" maskUnits="userSpaceOnUse" width="16.9" x="63.4" y="83.6"><path d="m0 137.8h242.7v-137.4h-242.7z" fill="#fff"/></mask><mask id="t" height="13" maskUnits="userSpaceOnUse" width="10.8" x="32.9" y="83"><path d="m0 137.8h242.7v-137.4h-242.7z" fill="#fff"/></mask><mask id="u" height="14.6" maskUnits="userSpaceOnUse" width="12.4" x="32.1" y="82.3"><path d="m0 137.8h242.7v-137.4h-242.7z" fill="#fff"/></mask><mask id="v" height="13.5" maskUnits="userSpaceOnUse" width="13.7" x="47.1" y="83.6"><path d="m0 137.8h242.7v-137.4h-242.7z" fill="#fff"/></mask><mask id="w" height="15" maskUnits="userSpaceOnUse" width="15.1" x="46.4" y="82.8"><path d="m0 137.8h242.7v-137.4h-242.7z" fill="#fff"/></mask><mask id="x" height="23.7" maskUnits="userSpaceOnUse" width="6.2" x="105" y="82.4"><path d="m0 137.8h242.7v-137.4h-242.7z" fill="#fff"/></mask><mask id="y" height="25.2" maskUnits="userSpaceOnUse" width="7.7" x="104.3" y="81.6"><path d="m0 137.8h242.7v-137.4h-242.7z" fill="#fff"/></mask><mask id="z" height="9.6" maskUnits="userSpaceOnUse" width="202.1" x="15.2" y="75.5"><path d="m0 137.8h242.7v-137.4h-242.7z" fill="#fff"/></mask><mask id="A" height="11.2" maskUnits="userSpaceOnUse" width="1.9" x="51.2" y="68.1"><path d="m0 137.8h242.7v-137.4h-242.7z" fill="#fff"/></mask><mask id="B" height="11.2" maskUnits="userSpaceOnUse" width="1.9" x="66.1" y="68.1"><path d="m0 137.8h242.7v-137.4h-242.7z" fill="#fff"/></mask><mask id="C" height="11.2" maskUnits="userSpaceOnUse" width="1.9" x="80.8" y="68.1"><path d="m0 137.8h242.7v-137.4h-242.7z" fill="#fff"/></mask><mask id="D" height="11.2" maskUnits="userSpaceOnUse" width="1.9" x="96.5" y="68.1"><path d="m0 137.8h242.7v-137.4h-242.7z" fill="#fff"/></mask><mask id="E" height="11.2" maskUnits="userSpaceOnUse" width="1.9" x="107.7" y="68.1"><path d="m0 137.8h242.7v-137.4h-242.7z" fill="#fff"/></mask><mask id="F" height="11.2" maskUnits="userSpaceOnUse" width="1.9" x="121.4" y="68.1"><path d="m0 137.8h242.7v-137.4h-242.7z" fill="#fff"/></mask><mask id="G" height="11.2" maskUnits="userSpaceOnUse" width="1.9" x="136.9" y="68.1"><path d="m0 137.8h242.7v-137.4h-242.7z" fill="#fff"/></mask><mask id="H" height="10.5" maskUnits="userSpaceOnUse" width="1.9" x="156.8" y="68.8"><path d="m0 137.8h242.7v-137.4h-242.7z" fill="#fff"/></mask><mask id="I" height="10.5" maskUnits="userSpaceOnUse" width="1.9" x="149.2" y="68.8"><path d="m0 137.8h242.7v-137.4h-242.7z" fill="#fff"/></mask><mask id="J" height="1.6" maskUnits="userSpaceOnUse" width=".4" x="158.5" y="68.5"><path d="m0 137.8h242.7v-137.4h-242.7z" fill="#fff"/></mask><mask id="K" height="8.9" maskUnits="userSpaceOnUse" width="122.6" x="36" y="63.7"><path d="m0 137.8h242.7v-137.4h-242.7z" fill="#fff"/></mask><mask id="L" height="20.8" maskUnits="userSpaceOnUse" width="228.4" x="6.1" y="97.3"><path d="m0 137.8h242.7v-137.4h-242.7z" fill="#fff"/></mask><mask id="M" height="14.1" maskUnits="userSpaceOnUse" width="23.8" x="6.4" y="82.3"><path d="m0 137.8h242.7v-137.4h-242.7z" fill="#fff"/></mask><mask id="N" height="15.6" maskUnits="userSpaceOnUse" width="25.5" x="5.5" y="81.6"><path d="m0 137.8h242.7v-137.4h-242.7z" fill="#fff"/></mask><path d="m49.3 25.1c27.6-.6 35.3-5.2 51.6-13.8s53.4-25.3 62.9 13.2-9.9 48.8-5.4 70.6-5 48.2-38 41.4c-33-6.9-43.9-8-57.9-4s-47.9 1.7-58.3-36.8 2.7-50 5.9-54c-.1.1 11.6-16 39.2-16.6z" fill="#e96851" mask="url(#a)" transform="translate(23.516129 .128508)"/><path d="m50.3 74.9v-4.5l-11.5-.4v4.7zm14.9.3v-4.4l-11.2-.3v4.5zm14.7.3v-4.2l-11.1-.3v4.3zm15.7.4v-4.1l-12-.4v4.2zm11.2.2v-3.9l-7.5-.2v4zm13.7.3v-3.8l-10.1-.3v3.9zm15.5.3v-3.6l-11.8-.4v3.8zm12.3.3v-3.5l-8.7-.3v3.6zm7.6.1v-5.2l-3.9 1.2v3.9zm40.8 42c-11.9 0-24.8-.9-26.5-1.1-.6-.1-11.3-1-26.2-2.2-21.8-1.8-54.8-4.6-81.9-7-49-4.3-49.4-4.8-49.9-5.3-1.4-1.4-6.6-5.3-6.7-5.4l-2.5-1.9 2.3.2 1.5-5.8 7.9-10.6.4-.1.2-.3h.8l19.1-4.8v-7.4l19.8-4.6 93.5 2.8 11 2.2v.1h.1v9.3l44.6.9 13.9 2.8 4.3 14c5.7.1 17.7.7 19.3 4.9l.1.1v.1c0 .3-.1 1.3-1.5 2.5-1.2 2-4 4.5-8.3 7.5-3.7 3.1-8.6 5.4-15.8 7.3-3.7 1.3-10.3 1.8-19.5 1.8z" fill="#45555f" mask="url(#b)"/><path d="m140.5 75.9v-1.8l6.9.2v1.7zm-15.4-.3v-1.9l10 .3v1.8zm-13.8-.3v-2.1l8.3.3v2zm41.6-1.5 2.2-.7v3h-2.2zm-52.8 1.3v-2.2l5.7.2v2.1zm-15.6-.4v-2.4l10.2.3v2.2zm-14.8-.3v-2.5l9.3.3v2.4zm-14.8-.3v-2.7l9.4.3v2.6zm-15.2-.3v-2.8l9.8.3v2.7zm15.2-11.9-.3.1-19 4.4-1.4.3v1.5 6l-18.2 4.5h-.2-.9l-.3.4-.4.1-.4.5-7.6 10.2-.2.3-.1.4-1.2 4.6-.1.2-4.6-.4 4.7 3.5.3.3.3.2c1.6 1.2 5.3 4.1 6.3 5.1.6.6.8.8 15.8 2.3 8.1.8 19.8 1.9 34.6 3.2 27.1 2.4 60.1 5.2 81.9 7 14.2 1.2 25.4 2.1 26.1 2.2 1.7.2 14.7 1.1 26.6 1.1 9.3 0 15.9-.5 19.7-1.6 7.3-2 12.3-4.3 16.1-7.5 4.4-3.1 7.2-5.6 8.5-7.6 1.6-1.4 1.8-2.7 1.7-3.2v-.3l-.1-.3c-1-2.4-4.3-4-10.4-4.8-3.4-.5-7-.6-9.1-.7l-4-12.9-.3-1-1-.2-13.3-2.7h-.2-.2l-43.6-.9v-7.5-1.7h-.4l-1.1-.2-10.2-2.1h-.1-.1l-93.3-2.8zm167.8 35c-.2-.2-.5-.4-.8-.6v.1s.3.2.8.5zm-73.5-19v-5.3l-10.5-.3v5.4zm-12.3-.3v-5.4l-13.6-.4v5.6zm-15.5-.3v-5.6l-11.9-.4v5.7zm-13.7-.3v-5.8l-9.3-.2v5.9zm49.1 1.1v-7.4l-5.7 1.7v5.5zm-60.3-1.3v-5.9l-13.8-.4v6zm-15.7-.3v-6l-12.8-.5v6.2zm-14.7-.3v-6.2l-13-.4v6.3zm-14.9-.3v-6.4l-13.3-.4v6.5zm3.8-12.2 93.3 2.8 10.2 2.1v.3h.1v9.2l45.4.9 13.3 2.7 4.4 14.1c3.2 0 17.6.3 19.2 4.4 0 0 0 .8-1.3 1.8-.9 1.5-3 3.8-8.2 7.4-3.2 2.7-7.6 5-15.4 7.2-4.1 1.1-11.6 1.5-19.2 1.5-12.1 0-24.9-.9-26.4-1.1-2.5-.4-156.1-12.8-157.5-14.2-1.4-1.5-6.8-5.5-6.8-5.5s.5 0 1.3.1l-.7-.1.3-1.7h-.5l1.1-4.6 7.6-10.2.4-.1.1-.2h.4l19.7-5h.1v-7.4z" fill="#e96851" mask="url(#c)"/><path d="m6.7 97.3 1-6.3 7.6-10.5 191.9 4.1 10.2-2.9 4.5 14.6s6.9 4.4 1.4 6.8 10-2.2 10-2.2l6.4-1.2s3.3 1.9-9.7 10.7c0 0-15.4 3.2-16.2 3.4-.7.2-40.4.7-40.4.7s-139-11.9-141.6-11.7-3.1-2.4-3.1-2.4z" fill="#e0877e" mask="url(#d)"/><path d="m112.8 106.1h6.2v-23.7h-6.2z" fill="#fff" mask="url(#e)"/><path d="m113.5 105.4h4.8v-22.3l-4.8-.3zm-1.4 1.4h7.7v-25.2h-7.7z" fill="#45555f" mask="url(#f)"/><path d="m208.7 86.9 7.1-2 2.8 12.4-8.5 3.7z" fill="#fff" mask="url(#g)"/><path d="m209.4 87.5 1.3 12.5 7.1-3-2.5-11.1zm.1 14.5-1.6-15.6 8.4-2.4 3.2 13.8z" fill="#45555f" mask="url(#h)"/><path d="m207.4 101.7h-20.2v-14.1h18.8z" fill="#fff" mask="url(#i)"/><path d="m187.9 101h18.7l-1.3-12.7h-17.4zm20.3 1.4h-21.7v-15.5h20.1z" fill="#45555f" mask="url(#j)"/><path d="m183.9 101.7h-23.8v-14.8l23.8.7z" fill="#fff" mask="url(#k)"/><path d="m160.8 101h22.3v-12.7l-22.3-.7zm23.8 1.4h-25.2v-16.3l25.2.8z" fill="#45555f" mask="url(#l)"/><path d="m142.6 101.7-19.2-1.1v-14.1l19.2.4z" fill="#fff" mask="url(#m)"/><path d="m124.1 99.9 17.7 1v-13.3l-17.7-.3zm19.2 2.6-20.5-1.2v-15.6l20.5.4z" fill="#45555f" mask="url(#n)"/><path d="m145.9 102.4s63.2 4 71.4 2 7.8-6.6 3.7-8.6c0 0 18-.2 19.8 4.4 0 0 .7 12.9-92.6 4.1z" fill="#933f34" mask="url(#o)"/><path d="m83.2 85.2v13l17 .9.7-13.1z" fill="#fff" mask="url(#p)"/><path d="m84 97.5 15.6.9.6-11.7-16.2-.8zm16.9 2.4-18.4-1v-14.5l19.1.9z" fill="#45555f" mask="url(#q)"/><path d="m64.1 84.3v12.8l15.5 1v-13z" fill="#fff" mask="url(#r)"/><path d="m64.8 96.5 14 .9v-11.6l-14-.7zm15.5 2.4-16.9-1v-14.3l16.9.8z" fill="#45555f" mask="url(#s)"/><path d="m43.7 83.5-9.2-.5-1.6 12.4 10.8.7z" fill="#fff" mask="url(#t)"/><path d="m33.7 94.7 9.3.6v-11.1l-7.9-.4zm10.8 2.1-12.4-.8 1.8-13.8 10.6.5z" fill="#45555f" mask="url(#u)"/><path d="m47.1 83.6v12.6l13.7.8v-12.8z" fill="#fff" mask="url(#v)"/><path d="m47.8 95.5 12.3.8v-11.4l-12.3-.6zm13.7 2.3-15.1-.9v-14.1l15.1.7z" fill="#45555f" mask="url(#w)"/><path d="m105 106.1h6.2v-23.7h-6.2z" fill="#fff" mask="url(#x)"/><path d="m105.7 105.4h4.8v-22.5h-4.8zm-1.4 1.4h7.7v-25.2h-7.7z" fill="#45555f" mask="url(#y)"/><g fill="#b0b7bb"><path d="m217.4 81.7-11.2 3.5-191-4.4 20.7-5.3 168.2 3.5z" mask="url(#z)"/><path d="m51.2 79.3h1.9v-11.2h-1.9z" mask="url(#A)"/><path d="m66.1 79.3h1.9v-11.2h-1.9z" mask="url(#B)"/><path d="m80.8 79.3h1.9v-11.2h-1.9z" mask="url(#C)"/><path d="m96.5 79.3h1.9v-11.2h-1.9z" mask="url(#D)"/><path d="m107.7 79.3h1.8v-11.2h-1.8z" mask="url(#E)"/><path d="m121.4 79.3h1.9v-11.2h-1.9z" mask="url(#F)"/><path d="m136.9 79.3h1.8v-11.2h-1.8z" mask="url(#G)"/><path d="m156.8 79.3h1.9v-10.5h-1.9z" mask="url(#H)"/><path d="m149.2 79.3h1.9v-10.5h-1.9z" mask="url(#I)"/></g><path d="m158.9 70-.4-1.6" fill="#1d918b" mask="url(#J)"/><path d="m158.6 68.6-10.2-2.1-93.4-2.8-19 4.4.1 1.1 1.1-.1 113.3 3.5 8.1-2.4z" fill="#b0b7bb" mask="url(#K)"/><path d="m234.5 106.5s-15.7 5.1-51 3.7-177.4-12.9-177.4-12.9 5.3 4 6.8 5.5c1.4 1.5 155 13.9 157.5 14.2 2.5.4 34.9 2.6 45.6-.4 10.6-2.8 14.9-6.1 18.5-10.1" fill="#933f34" mask="url(#L)"/><path d="m6.4 94.9 1.2-4.6 7.6-8h14.9l-3.1 14.1z" fill="#fff" mask="url(#M)"/><path d="m7.3 94.3 19.2 1.4 2.8-12.7h-13.8l-7.3 7.6zm20.3 2.9-22.1-1.6 1.4-5.6 7.9-8.4h16.2z" fill="#45555f" mask="url(#N)"/><path d="m46.7-119.8h72v72h-72z" fill="#e96851"/><path d="m169.9-97.3h89.5v49.3h-89.5z" fill="#45555f"/><path d="m-68.7-103.3h67v55.3h-67z" fill="#b0b7bb"/><path d="m-1.7-86.7h47.7v38.7h-47.7z" fill="#e0877e"/><path d="m118.2-83.3h51.6v35.3h-51.6z" fill="#933f34"/></svg>