<svg enable-background="new 0 0 167 146" viewBox="0 0 167 146" xmlns="http://www.w3.org/2000/svg"><g><path d="m9.9 41.8s11.8-16 39.5-16.6c27.6-.6 35.4-5.2 51.7-13.8s53.6-25.2 63.1 13.2-10 48.7-5.4 70.5c4.5 21.8-5 48.1-38.1 41.2s-44-8-58.1-4-48.1 1.7-58.6-36.7c-10.5-38.4 2.7-49.8 5.9-53.8" fill="#e96851"/><path d="m114.7 136.8c0-.1 0-.3 0-.4s0-.3 0-.4v-1.9h-.8c-2.8-4-12.8-7-24.7-7s-21.9 3-24.7 7h-.8v2.3.4c.6 4.9 11.8 8.9 25.4 8.9 13.8 0 25-3.9 25.6-8.9z" fill="#45555f"/><path d="m114.7 134.2c0 5.1-11.4 9.3-25.5 9.3s-25.5-4.2-25.5-9.3 11.4-9.3 25.5-9.3 25.5 4.2 25.5 9.3" fill="#e96851"/><path d="m89.2 125.6c-14.8 0-24.8 4.4-24.8 8.6s10 8.6 24.8 8.6 24.8-4.4 24.8-8.6c0-4.1-9.9-8.6-24.8-8.6m0 18.6c-12.8 0-26.1-3.7-26.1-10 0-6.2 13.3-10 26.1-10s26.1 3.7 26.1 10c.1 6.3-13.2 10-26.1 10" fill="#45555f"/><path d="m92.8 76.8h-7.4v56.1.1c.1.8 1.7 1.5 3.7 1.5s3.6-.7 3.7-1.5z" fill="#933f34"/><path d="m86.1 132.9c.1.3 1.2.9 3 .9 1.9 0 3-.6 3-.9v-55.4h-6.1v55.4zm3 2.2c-1.7 0-3.5-.5-4.2-1.5h-.2v-.8-56.6h8.8v57.5h-.2c-.6 1-2.5 1.4-4.2 1.4z" fill="#e0877e"/><path d="m38.9 82.7c-1.6-.1-2.6-2.1-3.1-3.2l-.5.1.2-1 8.2-42.9c0-1.6 1.3-2.9 2.9-2.9h85.2c1.6 0 2.9 1.3 2.9 2.9l8.4 43.9-.5-.1c-.5 1.1-1.5 3-3 3.2h-.1z" fill="#933f34"/><path d="m131.8 32.1h-85.2c-1.9 0-3.5 1.6-3.6 3.5l-8 41.7.2 2.4.2.6c.6 1.3 1.7 2.9 3.3 3.1h.1.1.1 100.6.1.1.1c1.6-.1 2.7-1.8 3.3-3.1l.4-1.6.2-1.6-8.2-41.5c-.3-1.9-1.8-3.5-3.8-3.5m0 1.4c1.2 0 2.2 1 2.2 2.3l8.2 42.9s-1.1 3.2-2.6 3.3h-.1-100.6-.1c-1.5-.1-2.6-3.3-2.6-3.3s0 0 0 0l8.2-42.9c0-1.2 1-2.3 2.2-2.3z" fill="#45555f"/><path d="m38.2 78.9c-1.6 0-2.9-1.3-2.9-2.9v-.1l8.4-44c0-1.6 1.3-2.9 2.9-2.9h85.2c1.6 0 2.9 1.3 2.9 2.9l8.4 44v.1c0 1.6-1.3 2.9-2.9 2.9z" fill="#e0877e"/><path d="m131.8 28.3h-85.2c-1.9 0-3.5 1.6-3.6 3.5l-8.4 43.8v.1.1c0 2 1.6 3.6 3.6 3.6h102.1c2 0 3.6-1.6 3.6-3.6v-.1-.1l-8.4-43.8c-.2-1.9-1.7-3.5-3.7-3.5m0 1.4c1.2 0 2.2 1 2.2 2.3l8.4 44c0 1.2-1 2.3-2.2 2.3h-102c-1.2 0-2.2-1-2.2-2.3l8.4-44c0-1.2 1-2.3 2.2-2.3z" fill="#45555f"/><path d="m139.5 73.7h-100.3l.4-1.7h99.5z" fill="#fff"/><path d="m138.8 75.5h-98.9l-.7-1.8h100.3z" fill="#45555f"/><path d="m58.7 35.8 61.1.2 4.2 31.8h-69.7z" fill="#fff"/><path d="m55.1 67.1h68.2l-4.1-30.4-59.9-.2zm69.7 1.4h-71.3l4.6-33.4 62.2.2z" fill="#45555f"/><g fill="#e96851"><path d="m73.8 44c0 1.4-1.1 2.5-2.5 2.5s-2.4-1.1-2.4-2.5 1.1-2.5 2.4-2.5c1.4 0 2.5 1.1 2.5 2.5"/><path d="m107.8 44.2c0 1.1-.8 2-1.8 2h-28.2c-1 0-1.8-.9-1.8-2s.8-2 1.8-2h28.2c1 0 1.8.9 1.8 2"/><path d="m71.7 51.9c0 1.4-1.1 2.5-2.4 2.5s-2.4-1.1-2.4-2.5 1.1-2.5 2.4-2.5 2.4 1.1 2.4 2.5"/><path d="m110 52.1c0 1.1-.9 2-2.1 2h-32.1c-1.1 0-2.1-.9-2.1-2s.9-2 2.1-2h32.2c1.1 0 2 .9 2 2"/><path d="m70.4 59.3c0 1.4-1.1 2.5-2.4 2.5-1.4 0-2.4-1.1-2.4-2.5s1.1-2.5 2.4-2.5 2.4 1.1 2.4 2.5"/><path d="m112.1 59.5c0 1.1-1 2-2.3 2h-35.1c-1.2 0-2.3-.9-2.3-2s1-2 2.3-2h35.1c1.3 0 2.3.9 2.3 2"/></g></g><path d="m34.8-77.8h72v72h-72z" fill="#e96851"/><path d="m158-55.3h89.5v49.3h-89.5z" fill="#45555f"/><path d="m-80.5-61.3h67v55.3h-67z" fill="#b0b7bb"/><path d="m-13.5-44.7h47.7v38.7h-47.7z" fill="#e0877e"/><path d="m106.4-41.3h51.6v35.3h-51.6z" fill="#933f34"/></svg>