<svg enable-background="new 0 0 174 141" viewBox="0 0 174 141" xmlns="http://www.w3.org/2000/svg" xmlns:xlink="http://www.w3.org/1999/xlink"><mask id="a" height="99" maskUnits="userSpaceOnUse" width="72" x="65" y="30"><path d="m0 140h174v-140h-174z" fill="#fff"/></mask><mask id="b" height="101" maskUnits="userSpaceOnUse" width="73" x="64" y="29"><path d="m0 140h174v-140h-174z" fill="#fff"/></mask><mask id="c" height="94" maskUnits="userSpaceOnUse" width="1" x="77" y="33"><path d="m0 140h174v-140h-174z" fill="#fff"/></mask><mask id="d" height=".5" maskUnits="userSpaceOnUse" width="66" x="67" y="39"><path d="m0 139h174v-140h-174z" fill="#fff"/></mask><mask id="e" height=".5" maskUnits="userSpaceOnUse" width="66" x="67" y="41.9"><path d="m0 138.9h174v-140h-174z" fill="#fff"/></mask><mask id="f" height=".5" maskUnits="userSpaceOnUse" width="66" x="67" y="44.8"><path d="m0 138.8h174v-140h-174z" fill="#fff"/></mask><mask id="g" height=".5" maskUnits="userSpaceOnUse" width="66" x="67" y="47.8"><path d="m0 139.8h174v-140h-174z" fill="#fff"/></mask><mask id="h" height=".5" maskUnits="userSpaceOnUse" width="66" x="67" y="50.7"><path d="m0 139.7h174v-140h-174z" fill="#fff"/></mask><mask id="i" height=".5" maskUnits="userSpaceOnUse" width="66" x="67" y="53.6"><path d="m0 139.6h174v-140h-174z" fill="#fff"/></mask><mask id="j" height=".5" maskUnits="userSpaceOnUse" width="66" x="67" y="56.5"><path d="m0 138.5h174v-140h-174z" fill="#fff"/></mask><mask id="k" height=".5" maskUnits="userSpaceOnUse" width="66" x="67" y="59.5"><path d="m0 138.5h174v-140h-174z" fill="#fff"/></mask><mask id="l" height=".5" maskUnits="userSpaceOnUse" width="66" x="67" y="62.4"><path d="m0 138.4h174v-140h-174z" fill="#fff"/></mask><mask id="m" height=".5" maskUnits="userSpaceOnUse" width="66" x="67" y="65.3"><path d="m0 139.3h174v-140h-174z" fill="#fff"/></mask><mask id="n" height=".5" maskUnits="userSpaceOnUse" width="66" x="67" y="68.2"><path d="m0 139.2h174v-140h-174z" fill="#fff"/></mask><mask id="o" height=".5" maskUnits="userSpaceOnUse" width="66" x="67" y="71.1"><path d="m0 138.1h174v-140h-174z" fill="#fff"/></mask><mask id="p" height=".5" maskUnits="userSpaceOnUse" width="66" x="67" y="74.1"><path d="m0 138.1h174v-140h-174z" fill="#fff"/></mask><mask id="q" height=".5" maskUnits="userSpaceOnUse" width="66" x="67" y="77"><path d="m0 138h174v-140h-174z" fill="#fff"/></mask><mask id="r" height=".5" maskUnits="userSpaceOnUse" width="66" x="67" y="79.9"><path d="m0 138.9h174v-140h-174z" fill="#fff"/></mask><mask id="s" height=".5" maskUnits="userSpaceOnUse" width="66" x="67" y="82.8"><path d="m0 138.8h174v-140h-174z" fill="#fff"/></mask><mask id="t" height=".5" maskUnits="userSpaceOnUse" width="66" x="67" y="85.8"><path d="m0 137.8h174v-140h-174z" fill="#fff"/></mask><mask id="u" height=".5" maskUnits="userSpaceOnUse" width="66" x="67" y="88.7"><path d="m0 137.7h174v-140h-174z" fill="#fff"/></mask><mask id="v" height=".5" maskUnits="userSpaceOnUse" width="66" x="67" y="91.6"><path d="m0 137.6h174v-140h-174z" fill="#fff"/></mask><mask id="w" height=".5" maskUnits="userSpaceOnUse" width="66" x="67" y="94.5"><path d="m0 138.5h174v-140h-174z" fill="#fff"/></mask><mask id="x" height=".5" maskUnits="userSpaceOnUse" width="66" x="67" y="97.4"><path d="m0 138.4h174v-140h-174z" fill="#fff"/></mask><mask id="y" height=".5" maskUnits="userSpaceOnUse" width="66" x="67" y="100.4"><path d="m0 137.4h174v-140h-174z" fill="#fff"/></mask><mask id="z" height=".5" maskUnits="userSpaceOnUse" width="66" x="67" y="115"><path d="m0 141h174v-140h-174z" fill="#fff"/></mask><mask id="A" height=".5" maskUnits="userSpaceOnUse" width="66" x="67" y="103.3"><path d="m0 138.3h174v-140h-174z" fill="#fff"/></mask><mask id="B" height=".5" maskUnits="userSpaceOnUse" width="66" x="67" y="106.2"><path d="m0 138.2h174v-140h-174z" fill="#fff"/></mask><mask id="C" height=".5" maskUnits="userSpaceOnUse" width="66" x="67" y="109.1"><path d="m0 138.1h174v-140h-174z" fill="#fff"/></mask><mask id="D" height=".5" maskUnits="userSpaceOnUse" width="66" x="67" y="112.1"><path d="m0 138.1h174v-140h-174z" fill="#fff"/></mask><mask id="E" height=".5" maskUnits="userSpaceOnUse" width="66" x="67" y="117.9"><path d="m0 127.9h174v-140h-174z" fill="#fff"/></mask><mask id="F" height=".5" maskUnits="userSpaceOnUse" width="66" x="67" y="120.8"><path d="m0 127.8h174v-140h-174z" fill="#fff"/></mask><mask id="G" height="3" maskUnits="userSpaceOnUse" width="3" x="68.5" y="116.5"><path d="m-.5 139.5h174v-140h-174z" fill="#fff"/></mask><mask id="H" height=".5" maskUnits="userSpaceOnUse" width="66" x="67" y="123.8"><path d="m0 149.8h174v-140h-174z" fill="#fff"/></mask><mask id="I" height="4" maskUnits="userSpaceOnUse" width="4" x="68" y="116"><path d="m0 140h174v-140h-174z" fill="#fff"/></mask><mask id="J" height="3" maskUnits="userSpaceOnUse" width="3" x="68.5" y="77.5"><path d="m-.5 139.5h174v-140h-174z" fill="#fff"/></mask><mask id="K" height="4" maskUnits="userSpaceOnUse" width="4" x="68" y="77"><path d="m0 140h174v-140h-174z" fill="#fff"/></mask><mask id="L" height="3" maskUnits="userSpaceOnUse" width="3" x="68.5" y="37.5"><path d="m-.5 139.5h174v-140h-174z" fill="#fff"/></mask><mask id="M" height="4" maskUnits="userSpaceOnUse" width="4" x="68" y="37"><path d="m0 140h174v-140h-174z" fill="#fff"/></mask><mask id="N" height="14" maskUnits="userSpaceOnUse" width="16" x="45" y="76.1"><path d="m0 140.1h174v-140h-174z" fill="#fff"/></mask><mask id="O" height="15" maskUnits="userSpaceOnUse" width="16" x="44.5" y="75.5"><path d="m-.5 140.5h174v-140h-174z" fill="#fff"/></mask><mask id="P" height="45" maskUnits="userSpaceOnUse" width="36" x="56" y="84"><path d="m0 140h174v-140h-174z" fill="#fff"/></mask><mask id="Q" height="47" maskUnits="userSpaceOnUse" width="38" x="53" y="81"><path d="m0 140h174v-140h-174z" fill="#fff"/></mask><mask id="R" height="19" maskUnits="userSpaceOnUse" width="16" x="44.8" y="69"><path d="m-.2 140h174v-140h-174z" fill="#fff"/></mask><mask id="S" height="20" maskUnits="userSpaceOnUse" width="18" x="43.5" y="69"><path d="m-.5 141h174v-140h-174z" fill="#fff"/></mask><mask id="T" height="4" maskUnits="userSpaceOnUse" width="4" x="56.5" y="84.5"><path d="m-.5 140.5h174v-140h-174z" fill="#fff"/></mask><mask id="U" height="4" maskUnits="userSpaceOnUse" width="4" x="45.9" y="73"><path d="m-.1 141h174v-140h-174z" fill="#fff"/></mask><mask id="V" height="65" maskUnits="userSpaceOnUse" width="45" x="112" y="28"><path d="m0 140h174v-140h-174z" fill="#fff"/></mask><mask id="W" height="49" maskUnits="userSpaceOnUse" width="34" x="116" y="38"><path d="m0 140h174v-140h-174z" fill="#fff"/></mask><mask id="X" height="49" maskUnits="userSpaceOnUse" width="34" x="115" y="37"><path d="m0 140h174v-140h-174z" fill="#fff"/></mask><mask id="Y" height="3" maskUnits="userSpaceOnUse" width="3" x="114" y="84"><path d="m0 140h174v-140h-174z" fill="#fff"/></mask><mask id="Z" height="7" maskUnits="userSpaceOnUse" width="6" x="113.3" y="84.8"><path d="m1.3 140.8h174v-140h-174z" fill="#fff"/></mask><mask id="aa" height="2" maskUnits="userSpaceOnUse" width="2" x="112" y="89"><path d="m0 140h174v-140h-174z" fill="#fff"/></mask><mask id="ab" height="67" maskUnits="userSpaceOnUse" width="47" x="111" y="28"><path d="m0 140h174v-140h-174z" fill="#fff"/></mask><g><path d="m10.3 42.8s12.3-16.5 41.1-17.1 36.9-5.3 53.9-14.1 55.8-25.9 65.7 13.5-10.4 50-5.7 72.4-5.2 49.4-39.7 42.4c-34.5-7.1-45.9-8.2-60.5-4.1-14.7 4.1-50.1 1.8-61-37.7-10.9-39.4 2.9-51.2 6.2-55.3" fill="#e96851"/><path d="m147 117.2-68.3 18.3-25.7-95.7 68.3-18.3z" fill="#fff"/><path d="m53.8 40.7 25.4 94.5 67-17.9-25.4-94.5zm24.3 96.3-26.1-97.3 69.9-18.7 26.1 97.3z" fill="#45555f"/><g fill="#e0877e"><path d="m90.3 131-24.3-90.8.7-.2 24.3 90.8z"/><path d="m58.1 50-.1-.4 64.9-17.6.1.4z"/><path d="m59.1 53-.1-.4 64.9-17.6.1.4z"/><path d="m60.1 56-.1-.4 64.9-17.6.1.4z"/><path d="m60.1 59-.1-.4 64.9-17.6.1.4z"/><path d="m61.1 62-.1-.4 64.9-17.6.1.4z"/><path d="m62.1 65-.1-.4 64.9-17.6.1.4z"/><path d="m62.1 67-.1-.4 64.9-17.6.1.4z"/><path d="m63.1 70-.1-.4 64.9-17.6.1.4z"/><path d="m64.1 74-.1-.4 64.9-17.6.1.4z"/><path d="m65.1 77-.1-.4 64.9-17.6.1.4z"/><path d="m65.1 79-.1-.4 64.9-17.6.1.4z"/><path d="m66.1 82-.1-.4 64.9-17.6.1.4z"/><path d="m67.1 85-.1-.4 64.9-17.6.1.4z"/><path d="m68.1 87-.1-.4 64.9-17.6.1.4z"/><path d="m68.1 91-.1-.4 64.9-17.6.1.4z"/><path d="m69.1 94-.1-.4 64.9-17.6.1.4z"/><path d="m70.1 96-.1-.4 64.9-17.6.1.4z"/><path d="m72.1 99-.1-.4 64.9-17.6.1.4z"/><path d="m72.1 102-.1-.4 64.9-17.6.1.4z"/><path d="m73.1 106-.1-.4 64.9-17.6.1.4z"/><path d="m74.1 108-.1-.4 64.9-17.6.1.4z"/><path d="m74.1 111-.1-.4 64.9-17.6.1.4z"/><path d="m75.1 114-.1-.4 64.9-17.6.1.4z"/><path d="m76.1 116-.1-.4 64.9-17.6.1.4z"/><path d="m77.1 119-.1-.4 64.9-17.6.1.4z"/><path d="m77.1 122-.1-.4 64.9-17.6.1.4z"/><path d="m78.1 125-.1-.4 64.9-17.6.1.4z"/><path d="m79.1 128-.1-.4 64.9-17.6.1.4z"/><path d="m80.1 131-.1-.4 64.9-17.6.1.4z"/></g><path d="m81.5 127c-.7 0-1.3-.5-1.4-1.1-.2-.8.3-1.6 1.1-1.8.1 0 .3-.1.4-.1.7 0 1.3.5 1.4 1.1.2.8-.3 1.6-1.1 1.8-.1.1-.3.1-.4.1" fill="#fff"/><path d="m82 123c-.2 0-.3 0-.5.1-1.1.3-1.7 1.4-1.4 2.4.2.9 1 1.5 1.9 1.5.2 0 .3 0 .5-.1 1.1-.3 1.7-1.4 1.4-2.4-.2-.9-1-1.5-1.9-1.5m0 .8c.5 0 1 .4 1.2.9.2.6-.2 1.3-.8 1.5-.1 0-.2 0-.3 0-.5 0-1-.4-1.2-.9-.2-.6.2-1.3.8-1.5z" fill="#1485e0"/><path d="m71.5 88c-.7 0-1.3-.5-1.4-1.1-.1-.4-.1-.8.1-1.1s.5-.6.9-.7c.1 0 .3-.1.4-.1.7 0 1.3.5 1.4 1.1.1.4.1.8-.1 1.1s-.5.6-.9.7c-.1.1-.3.1-.4.1" fill="#fff"/><path d="m71 84c-.2 0-.3 0-.5.1-1.1.3-1.7 1.4-1.4 2.4.2.9 1 1.5 1.9 1.5.2 0 .3 0 .5-.1 1.1-.3 1.7-1.4 1.4-2.4-.2-.9-1-1.5-1.9-1.5m0 .8c.5 0 1 .4 1.2.9.1.3 0 .6-.1.9-.2.3-.4.5-.7.6-.1 0-.2 0-.3 0-.5 0-1-.4-1.2-.9-.1-.3 0-.6.1-.9.2-.3.4-.5.7-.6z" fill="#1485e0"/><path d="m62 50.5c-.7 0-1.3-.5-1.4-1.1-.2-.8.3-1.6 1.1-1.8.1 0 .3-.1.4-.1.7 0 1.3.5 1.4 1.1.2.8-.3 1.6-1.1 1.8-.1.1-.3.1-.4.1" fill="#e96851"/><path d="m62 47c-.2 0-.3 0-.5.1-1.1.3-1.7 1.4-1.4 2.4.2.9 1 1.5 1.9 1.5.2 0 .3 0 .5-.1 1.1-.3 1.7-1.4 1.4-2.4-.2-.9-1-1.5-1.9-1.5m0 .8c.5 0 1 .4 1.2.9.2.6-.2 1.3-.8 1.5-.1 0-.2 0-.3 0-.5 0-1-.4-1.2-.9-.1-.3 0-.6.1-.9.2-.3.4-.5.7-.6z" fill="#933f34"/><path d="m65 129h72v-99h-72z" fill="#fff" mask="url(#a)"/><path d="m65.5 128.5h70v-98h-70zm-1.5 1.5h73v-101h-73z" fill="#45555f" mask="url(#b)"/><path d="m77 127h1v-94h-1z" fill="#e0877e" mask="url(#c)"/><path d="m67 39.5h66v-.5h-66z" fill="#e0877e" mask="url(#d)"/><path d="m67 42.4h66v-.5h-66z" fill="#e0877e" mask="url(#e)"/><path d="m67 45.3h66v-.5h-66z" fill="#e0877e" mask="url(#f)"/><path d="m67 48.3h66v-.5h-66z" fill="#e0877e" mask="url(#g)"/><path d="m67 51.2h66v-.5h-66z" fill="#e0877e" mask="url(#h)"/><path d="m67 54.1h66v-.5h-66z" fill="#e0877e" mask="url(#i)"/><path d="m67 57h66v-.5h-66z" fill="#e0877e" mask="url(#j)"/><path d="m67 60h66v-.5h-66z" fill="#e0877e" mask="url(#k)"/><path d="m67 62.9h66v-.5h-66z" fill="#e0877e" mask="url(#l)"/><path d="m67 65.8h66v-.5h-66z" fill="#e0877e" mask="url(#m)"/><path d="m67 68.7h66v-.5h-66z" fill="#e0877e" mask="url(#n)"/><path d="m67 71.6h66v-.5h-66z" fill="#e0877e" mask="url(#o)"/><path d="m67 74.6h66v-.5h-66z" fill="#e0877e" mask="url(#p)"/><path d="m67 77.5h66v-.5h-66z" fill="#e0877e" mask="url(#q)"/><path d="m67 80.4h66v-.5h-66z" fill="#e0877e" mask="url(#r)"/><path d="m67 83.3h66v-.5h-66z" fill="#e0877e" mask="url(#s)"/><path d="m67 86.3h66v-.5h-66z" fill="#e0877e" mask="url(#t)"/><path d="m67 89.2h66v-.5h-66z" fill="#e0877e" mask="url(#u)"/><path d="m67 92.1h66v-.5h-66z" fill="#e0877e" mask="url(#v)"/><path d="m67 95h66v-.5h-66z" fill="#e0877e" mask="url(#w)"/><path d="m67 97.9h66v-.5h-66z" fill="#e0877e" mask="url(#x)"/><path d="m67 100.9h66v-.5h-66z" fill="#e0877e" mask="url(#y)"/><path d="m67 115.5h66v-.5h-66z" fill="#e0877e" mask="url(#z)"/><path d="m67 103.8h66v-.5h-66z" fill="#e0877e" mask="url(#A)"/><path d="m67 106.7h66v-.5h-66z" fill="#e0877e" mask="url(#B)"/><path d="m67 109.6h66v-.5h-66z" fill="#e0877e" mask="url(#C)"/><path d="m67 112.6h66v-.5h-66z" fill="#e0877e" mask="url(#D)"/><path d="m67 118.4h66v-.5h-66z" fill="#e0877e" mask="url(#E)"/><path d="m67 121.3h66v-.5h-66z" fill="#e0877e" mask="url(#F)"/><path d="m70 119.5c-.8 0-1.5-.7-1.5-1.5s.7-1.5 1.5-1.5 1.5.7 1.5 1.5-.7 1.5-1.5 1.5" fill="#e96851" mask="url(#G)"/><path d="m67 124.3h66v-.5h-66z" fill="#e0877e" mask="url(#H)"/><path d="m70 116c-1.1 0-2 .9-2 2s.9 2 2 2 2-.9 2-2-.9-2-2-2m0 .8c.7 0 1.2.5 1.2 1.2s-.5 1.2-1.2 1.2-1.2-.5-1.2-1.2.5-1.2 1.2-1.2" fill="#933f34" mask="url(#I)"/><path d="m70 80.5c-.8 0-1.5-.7-1.5-1.5s.7-1.5 1.5-1.5 1.5.7 1.5 1.5-.7 1.5-1.5 1.5" fill="#fff" mask="url(#J)"/><path d="m70 77c-1.1 0-2 .9-2 2s.9 2 2 2 2-.9 2-2-.9-2-2-2m0 .8c.7 0 1.2.5 1.2 1.2s-.5 1.2-1.2 1.2-1.2-.5-1.2-1.2.5-1.2 1.2-1.2" fill="#933f34" mask="url(#K)"/><path d="m70 40.5c-.8 0-1.5-.7-1.5-1.5s.7-1.5 1.5-1.5 1.5.7 1.5 1.5-.7 1.5-1.5 1.5" fill="#fff" mask="url(#L)"/><path d="m70 37c-1.1 0-2 .9-2 2s.9 2 2 2 2-.9 2-2-.9-2-2-2m0 .8c.7 0 1.2.5 1.2 1.2s-.5 1.2-1.2 1.2-1.2-.5-1.2-1.2.5-1.2 1.2-1.2" fill="#933f34" mask="url(#M)"/><path d="m47.3 76.1c-1.4.2-2.2 1.6-2.2 1.6-.2.1-.2.4-.1.5l9.1 11.3c.5.7 1.5.7 2.2.2l4.6-3.5" fill="#fff" mask="url(#N)"/><path d="m55.9 90.2c-.8.5-1.9.4-2.5-.4l-8.8-11.5c-.1-.2-.2-.4-.2-.6s.1-.4.3-.5l2.1-1.7.5.6-2.1 1.7 8.8 11.5c.4.5 1 .6 1.5.2l4.4-3.6.5.6-4.4 3.6s0 0-.1.1" fill="#933f34" mask="url(#O)"/><path d="m56 87.4 30.8 40.1c.1.2.3.2.5.1l.3-.2 1.1 1.5c.1.2.4.2.5.1l2.6-2.1c.2-.1.2-.4.1-.5l-1.1-1.5.3-.2c.2-.1.2-.4.1-.6l-30.9-40.1z" fill="#b0b7bb" mask="url(#P)"/><path d="m86 124.6 1.4 1.8 2-1.6-1.4-1.8.6-.5-30.3-39.4-3.2 2.5 30.3 39.4zm1.9 3.2c-.5.3-1.1.2-1.5-.3l-.7-.9c-.4.2-.9 0-1.2-.4l-31.5-40.8 5.5-4.4 31.5 40.9c.2.2.3.6.2.9 0 .2-.1.3-.2.4l.7.9c.4.5.3 1.2-.2 1.6z" fill="#933f34" mask="url(#Q)"/><path d="m56.5 88-11.6-15.4c-.1-.2-.1-.4.1-.5l3.7-3c.2-.1.4-.1.5.1l11.6 15.4" fill="#e96851" mask="url(#R)"/><path d="m55.8 89-12.1-15.2c-.4-.5-.3-1.2.2-1.6l3.9-3c.5-.4 1.2-.3 1.6.2l12.1 15.2-1.2.9-11.9-14.9-3.3 2.5 11.9 15z" fill="#933f34" mask="url(#S)"/><path d="m56.9 88.5-.4-.7 3.6-3.3.4.7z" fill="#933f34" mask="url(#T)"/><path d="m46.3 77-.4-.7 3.6-3.3.4.7z" fill="#933f34" mask="url(#U)"/><path d="m154.3 28.3 1.8 1.3c.7.5 1.2 1.2.7 1.9l-38.5 56.8-6.3 4.7 2.1-7.7 38.5-56.8c.4-.7 1-.6 1.7-.2" fill="#933f34" mask="url(#V)"/><path d="m150 38.4-33.4 48.6-.6-.4 33.4-48.6z" fill="#45555f" mask="url(#W)"/><path d="m149 37.4-33.4 48.6-.6-.4 33.4-48.6z" fill="#933f34" mask="url(#X)"/><path d="m117 86.3-.4.7-2.6-2.3.4-.7z" fill="#4d3a09" mask="url(#Y)"/><path d="m119.3 87.7-6 4.1 1.7-7z" fill="#fff" mask="url(#Z)"/><path d="m113 89 1 .6-1 1.4-1-.6z" fill="#4d3a09" mask="url(#aa)"/><path d="m118.5 87.7 38.4-56.3c0-.1.1-.2-.1-.5-.1-.1-.2-.2-.4-.3l-1.8-1.3c-.5-.3-.6-.2-.7 0l-38.4 56.3-1.5 5.4zm39-57.4c.6.7.7 1.6.2 2.3l-38.5 56.4-8.2 6 2.7-9.8.1-.1 38.5-56.2c.7-1 1.7-1.1 2.8-.4l1.8 1.3c.2.1.4.3.6.5z" fill="#45555f" mask="url(#ab)"/></g><path d="m34.6-85.8h72v72h-72z" fill="#e96851"/><path d="m157.7-63.3h89.5v49.3h-89.5z" fill="#45555f"/><path d="m-80.8-69.3h67v55.3h-67z" fill="#b0b7bb"/><path d="m-13.8-52.7h47.7v38.7h-47.7z" fill="#e0877e"/><path d="m106.1-49.3h51.6v35.3h-51.6z" fill="#933f34"/></svg>